<?xml version="1.0" encoding="utf-8"?>
<!-- Generator: Adobe Illustrator 22.0.1, SVG Export Plug-In . SVG Version: 6.00 Build 0)  -->
<svg version="1.1" id="Capa_1" xmlns="http://www.w3.org/2000/svg" xmlns:xlink="http://www.w3.org/1999/xlink" x="0px" y="0px"
	 viewBox="0 0 2000 2000" style="enable-background:new 0 0 2000 2000;" xml:space="preserve">
<style type="text/css">
	.st0{stroke:#FFFFFF;stroke-width:4;stroke-miterlimit:10;}
	.st1{fill:#0000FF;}
	.st2{fill:#0000FF;stroke:#FFFFFF;stroke-width:4;stroke-miterlimit:10;}
</style>
<g>
	<path d="M1568,1013.7l124.9,177.6c12.6,17.9-0.2,42.5-22.1,42.5h-99.7c-8.8,0-17-4.3-22.1-11.5l-52.7-75
		c-10.8-15.3-33.4-15.3-44.2,0l-52.7,75c-5.1,7.2-13.3,11.5-22.1,11.5h-99.7c-21.9,0-34.7-24.7-22.1-42.6l124.9-177.6
		c6.6-9.3,6.6-21.8,0-31.1L1255.5,805c-12.6-17.9,0.2-42.6,22.1-42.6h99.7c8.8,0,17,4.3,22.1,11.5l52.7,75
		c10.8,15.3,33.4,15.3,44.2,0l52.7-75c5.1-7.2,13.3-11.5,22.1-11.5h99.7c21.9,0,34.7,24.7,22.1,42.5L1568,982.6
		C1561.4,991.9,1561.4,1004.4,1568,1013.7z"/>
</g>
<path d="M1153.6,1236.7h-81.8c-16.5,0-31.7-8.6-40.3-22.7l-22.4-36.8c-8.6-14.1-23.8-22.7-40.3-22.7H821.1c-7.3,0-13.3-6-13.3-13.3
	v-88c0-6.5,4.7-12,11.1-13.1c0.2,0,0.4-0.1,0.6-0.1c0,0,0,0,0.1,0c0.8-0.2,1.7-0.3,2.5-0.5c2.5-0.6,4.9-1.3,7.2-2.1
	c0.6-0.2,1.3-0.5,1.9-0.7c1.7-0.7,3.4-1.4,5.1-2.3c0.7-0.3,1.4-0.7,2-1.1c0.6-0.3,1.2-0.6,1.7-1c0.3-0.2,0.6-0.4,0.9-0.5
	c0.1-0.1,0.2-0.1,0.3-0.2c0.5-0.3,0.9-0.6,1.4-0.9c0.6-0.4,1.2-0.8,1.8-1.2c1.9-1.3,3.8-2.8,5.6-4.4c0.3-0.3,0.6-0.5,0.9-0.8
	c1.7-1.6,3.4-3.2,4.9-5c0.5-0.5,1-1.1,1.4-1.7c0.5-0.6,0.9-1.1,1.3-1.7c0.1-0.1,0.2-0.3,0.3-0.4c0.4-0.5,0.8-1,1.2-1.6
	c0.1-0.1,0.2-0.3,0.3-0.4c0.4-0.6,0.8-1.2,1.2-1.8c0.4-0.7,0.9-1.4,1.3-2.1c0.4-0.7,0.8-1.4,1.2-2.1c0,0,0,0,0,0
	c0.3-0.6,0.7-1.3,1-2c0.1-0.1,0.1-0.2,0.2-0.3c0.4-0.7,0.7-1.4,1-2.1c0.3-0.7,0.6-1.4,0.9-2.2c0,0,0-0.1,0.1-0.1
	c0.3-0.8,0.6-1.5,0.9-2.3c0.6-1.6,1.1-3.2,1.5-4.8c0.2-0.6,0.3-1.2,0.5-1.8c0.3-1.2,0.6-2.5,0.8-3.7c0.1-0.6,0.2-1.3,0.3-1.9
	c0.1-0.8,0.2-1.5,0.3-2.3c0.1-0.8,0.1-1.5,0.2-2.3c0-0.5,0.1-1,0.1-1.5c0-0.5,0.1-1,0.1-1.5c0-0.5,0-1.1,0-1.6c0-0.6,0-1.1,0-1.6
	c0-0.4,0-0.8,0-1.3c0-0.2,0-0.5,0-0.7c0-0.4,0-0.8-0.1-1.2c-0.1-1.1-0.2-2.1-0.3-3.2c-0.1-0.9-0.2-1.7-0.4-2.6
	c-0.1-0.8-0.3-1.7-0.5-2.5c-0.2-0.8-0.4-1.7-0.6-2.5c-0.2-0.8-0.4-1.6-0.6-2.3c0-0.1-0.1-0.2-0.1-0.3c-0.5-1.6-1-3.2-1.6-4.7
	c-0.3-0.8-0.6-1.6-1-2.3c0,0,0,0,0,0c-0.3-0.8-0.7-1.5-1.1-2.3c0,0,0-0.1-0.1-0.1c-0.3-0.7-0.7-1.4-1.1-2.1
	c-0.4-0.7-0.8-1.5-1.2-2.2c-0.4-0.7-0.8-1.4-1.3-2.1c-0.3-0.5-0.7-1-1-1.5c-0.2-0.3-0.4-0.6-0.6-0.8c-0.4-0.6-0.8-1.1-1.2-1.7
	c0,0,0-0.1-0.1-0.1c-0.4-0.6-0.9-1.2-1.4-1.8c-0.1-0.2-0.3-0.4-0.5-0.6c-0.4-0.5-0.8-1-1.2-1.5c-1-1.1-2-2.2-3.1-3.3
	c-0.2-0.2-0.3-0.3-0.5-0.5c-0.5-0.5-1.5-1.4-2-1.9c-0.3-0.3-0.7-0.6-1-0.9c-0.2-0.2-0.5-0.4-0.8-0.6c-0.6-0.5-1.2-1-1.9-1.5
	c-0.4-0.4-0.9-0.7-1.4-1c-0.1-0.1-0.3-0.2-0.4-0.3c-0.4-0.2-0.7-0.5-1.1-0.7c-0.1-0.1-0.2-0.2-0.4-0.2c-0.3-0.2-0.7-0.5-1-0.7
	c-0.7-0.4-1.3-0.8-2-1.2c-0.7-0.4-1.3-0.8-2-1.2c-0.6-0.3-1.2-0.6-1.8-0.9c-0.3-0.2-0.6-0.3-0.9-0.5c-0.5-0.3-1-0.5-1.5-0.7
	c-0.4-0.2-0.8-0.4-1.3-0.6c-0.1-0.1-0.2-0.1-0.3-0.1c-0.4-0.2-0.8-0.4-1.3-0.5c-0.7-0.3-1.5-0.6-2.3-0.8c-0.8-0.3-1.6-0.5-2.4-0.8
	c-0.8-0.3-1.6-0.5-2.4-0.7c-0.8-0.2-1.7-0.4-2.5-0.6c-0.8-0.2-1.7-0.4-2.5-0.5c0,0,0,0-0.1,0c0,0-0.1,0-0.1,0
	c-6.4-1.1-11.2-6.6-11.2-13.1V778.6c0-7.3,6-13.3,13.3-13.3H866c13.1,0,25.5,6.4,33.1,17.2l282.1,401.2
	C1196.8,1206,1180.9,1236.7,1153.6,1236.7z"/>
<g>
	<path d="M678.2,762.5h-92.1c-17.3,0-31.4,14.1-31.4,31.4v96.3c0,29.3-36.7,42.7-55.5,20.1L385,773.7c-6-7.1-14.8-11.2-24.1-11.2
		h-84.6c-17.3,0-31.4,14.1-31.4,31.4v408.6c0,17.3,14.1,31.4,31.4,31.4h92.1c17.3,0,31.4-14.1,31.4-31.4v-96.3
		c0-29.3,36.7-42.6,55.5-20.1l22.8,27.3l91.4,109.3c2.8,3.3,6.2,6,10,7.9c4.3,2.2,9.1,3.3,14.1,3.3h84.6c17.3,0,31.4-14.1,31.4-31.4
		V793.8C709.6,776.5,695.5,762.5,678.2,762.5z"/>
	<path class="st0" d="M747.4,1040.6"/>
	<path d="M631.5,1237.2L631.5,1237.2z"/>
</g>
<g>
	<path class="st1" d="M735.5,762.8h-92.1c-17.3,0-31.4,14.1-31.4,31.4v96.3c0,29.3-36.7,42.7-55.5,20.1L442.2,774
		c-6-7.1-14.8-11.2-24.1-11.2h-84.6c-17.3,0-31.4,14.1-31.4,31.4v408.6c0,17.3,14.1,31.4,31.4,31.4h92.1c17.3,0,31.4-14.1,31.4-31.4
		v-96.3c0-29.3,36.7-42.6,55.5-20.1l22.8,27.3l91.4,109.3c2.8,3.3,6.2,6,10,7.9c4.3,2.2,9.1,3.3,14.1,3.3h84.6
		c17.3,0,31.4-14.1,31.4-31.4V794.2C766.8,776.8,752.8,762.8,735.5,762.8z"/>
	<path class="st2" d="M804.7,1040.9"/>
	<path class="st1" d="M688.7,1237.5L688.7,1237.5z"/>
</g>
<path class="st1" d="M1210.9,1237h-81.8c-16.5,0-31.7-8.6-40.3-22.7l-22.4-36.8c-8.6-14.1-23.8-22.7-40.3-22.7H878.3
	c-7.3,0-13.3-6-13.3-13.3v-88c0-6.5,4.7-12,11.1-13.1c0.2,0,0.4-0.1,0.6-0.1c0,0,0,0,0.1,0c0.8-0.2,1.7-0.3,2.5-0.5
	c2.5-0.6,4.9-1.3,7.2-2.1c0.6-0.2,1.3-0.5,1.9-0.7c1.7-0.7,3.4-1.4,5.1-2.3c0.7-0.3,1.4-0.7,2-1.1c0.6-0.3,1.2-0.6,1.7-1
	c0.3-0.2,0.6-0.4,0.9-0.5c0.1-0.1,0.2-0.1,0.3-0.2c0.5-0.3,0.9-0.6,1.4-0.9c0.6-0.4,1.2-0.8,1.8-1.2c1.9-1.3,3.8-2.8,5.6-4.4
	c0.3-0.3,0.6-0.5,0.9-0.8c1.7-1.6,3.4-3.2,4.9-5c0.5-0.5,1-1.1,1.4-1.7c0.5-0.6,0.9-1.1,1.3-1.7c0.1-0.1,0.2-0.3,0.3-0.4
	c0.4-0.5,0.8-1,1.2-1.6c0.1-0.1,0.2-0.3,0.3-0.4c0.4-0.6,0.8-1.2,1.2-1.8c0.4-0.7,0.9-1.4,1.3-2.1c0.4-0.7,0.8-1.4,1.2-2.1
	c0,0,0,0,0,0c0.3-0.6,0.7-1.3,1-2c0.1-0.1,0.1-0.2,0.2-0.3c0.4-0.7,0.7-1.4,1-2.1c0.3-0.7,0.6-1.4,0.9-2.2c0,0,0-0.1,0.1-0.1
	c0.3-0.8,0.6-1.5,0.9-2.3c0.6-1.6,1.1-3.2,1.5-4.8c0.2-0.6,0.3-1.2,0.5-1.8c0.3-1.2,0.6-2.5,0.8-3.7c0.1-0.6,0.2-1.3,0.3-1.9
	c0.1-0.8,0.2-1.5,0.3-2.3c0.1-0.8,0.1-1.5,0.2-2.3c0-0.5,0.1-1,0.1-1.5c0-0.5,0.1-1,0.1-1.5c0-0.5,0-1.1,0-1.6c0-0.6,0-1.1,0-1.6
	c0-0.4,0-0.8,0-1.3c0-0.2,0-0.5,0-0.7c0-0.4,0-0.8-0.1-1.2c-0.1-1.1-0.2-2.1-0.3-3.2c-0.1-0.9-0.2-1.7-0.4-2.6
	c-0.1-0.8-0.3-1.7-0.5-2.5c-0.2-0.8-0.4-1.7-0.6-2.5c-0.2-0.8-0.4-1.6-0.6-2.3c0-0.1-0.1-0.2-0.1-0.3c-0.5-1.6-1-3.2-1.6-4.7
	c-0.3-0.8-0.6-1.6-1-2.3c0,0,0,0,0,0c-0.3-0.8-0.7-1.5-1.1-2.3c0,0,0-0.1-0.1-0.1c-0.3-0.7-0.7-1.4-1.1-2.1
	c-0.4-0.7-0.8-1.5-1.2-2.2c-0.4-0.7-0.8-1.4-1.3-2.1c-0.3-0.5-0.7-1-1-1.5c-0.2-0.3-0.4-0.6-0.6-0.8c-0.4-0.6-0.8-1.1-1.2-1.7
	c0,0,0-0.1-0.1-0.1c-0.4-0.6-0.9-1.2-1.4-1.8c-0.1-0.2-0.3-0.4-0.5-0.6c-0.4-0.5-0.8-1-1.2-1.5c-1-1.1-2-2.2-3.1-3.3
	c-0.2-0.2-0.3-0.3-0.5-0.5c-0.5-0.5-1.5-1.4-2-1.9c-0.3-0.3-0.7-0.6-1-0.9c-0.2-0.2-0.5-0.4-0.8-0.6c-0.6-0.5-1.2-1-1.9-1.5
	c-0.4-0.4-0.9-0.7-1.4-1c-0.1-0.1-0.3-0.2-0.4-0.3c-0.4-0.2-0.7-0.5-1.1-0.7c-0.1-0.1-0.2-0.2-0.4-0.2c-0.3-0.2-0.7-0.5-1-0.7
	c-0.7-0.4-1.3-0.8-2-1.2c-0.7-0.4-1.3-0.8-2-1.2c-0.6-0.3-1.2-0.6-1.8-0.9c-0.3-0.2-0.6-0.3-0.9-0.5c-0.5-0.3-1-0.5-1.5-0.7
	c-0.4-0.2-0.8-0.4-1.3-0.6c-0.1-0.1-0.2-0.1-0.3-0.1c-0.4-0.2-0.8-0.4-1.3-0.5c-0.7-0.3-1.5-0.6-2.3-0.8c-0.8-0.3-1.6-0.5-2.4-0.8
	c-0.8-0.3-1.6-0.5-2.4-0.7c-0.8-0.2-1.7-0.4-2.5-0.6c-0.8-0.2-1.7-0.4-2.5-0.5c0,0,0,0-0.1,0c0,0-0.1,0-0.1,0
	c-6.4-1.1-11.2-6.6-11.2-13.1V778.9c0-7.3,6-13.3,13.3-13.3h44.9c13.1,0,25.5,6.4,33.1,17.2l282.1,401.2
	C1254.1,1206.3,1238.1,1237,1210.9,1237z"/>
<g>
	<path class="st1" d="M1625.2,1014l124.9,177.6c12.6,17.9-0.2,42.5-22.1,42.5h-99.7c-8.8,0-17-4.3-22.1-11.5l-52.7-75
		c-10.8-15.3-33.4-15.3-44.2,0l-52.7,75c-5.1,7.2-13.3,11.5-22.1,11.5h-99.7c-21.9,0-34.7-24.7-22.1-42.6l124.9-177.6
		c6.6-9.3,6.6-21.8,0-31.1l-124.9-177.6c-12.6-17.9,0.2-42.6,22.1-42.6h99.7c8.8,0,17,4.3,22.1,11.5l52.7,75
		c10.8,15.3,33.4,15.3,44.2,0l52.7-75c5.1-7.2,13.3-11.5,22.1-11.5h99.7c21.9,0,34.7,24.7,22.1,42.5l-124.9,177.6
		C1618.7,992.3,1618.7,1004.7,1625.2,1014z"/>
</g>
</svg>
