<?xml version="1.0" encoding="utf-8"?>
<!-- Generator: Adobe Illustrator 22.0.1, SVG Export Plug-In . SVG Version: 6.00 Build 0)  -->
<svg version="1.1" id="Capa_1" xmlns="http://www.w3.org/2000/svg" xmlns:xlink="http://www.w3.org/1999/xlink" x="0px" y="0px"
	 viewBox="0 0 2000 2000" style="enable-background:new 0 0 2000 2000;" xml:space="preserve">
<style type="text/css">
	.st0{fill:#0000FF;}
</style>
<path d="M1525.4,558.7c2.5,8.3,3.9,17.2,3.9,26.7v217.2c0,43.8-22.8,84.4-60.2,107.1l-97.9,59.5c-37.4,22.8-60.2,63.3-60.2,107.1
	V1469c0,19.5-15.8,35.3-35.3,35.3H1042c-17.3,0-31.8-12.5-34.8-29.5c-0.1-0.6-0.2-1.1-0.3-1.7c0-0.1,0-0.1,0-0.1
	c-0.4-2.2-0.9-4.4-1.4-6.6c-1.5-6.5-3.4-13-5.6-19.2c-0.6-1.7-1.3-3.4-1.9-5.1c-1.8-4.6-3.8-9.1-6-13.5c-0.9-1.8-1.8-3.6-2.8-5.4
	c-0.8-1.5-1.7-3.1-2.6-4.6c-0.5-0.8-0.9-1.5-1.4-2.3c-0.1-0.2-0.3-0.5-0.4-0.7c-0.7-1.3-1.5-2.5-2.3-3.7c-1-1.6-2.1-3.1-3.2-4.7
	c-3.5-5.2-7.4-10.1-11.6-14.8c-0.7-0.8-1.4-1.5-2-2.3c-4.2-4.6-8.6-9-13.3-13.1c-1.4-1.3-2.9-2.5-4.4-3.8c-1.5-1.2-2.9-2.4-4.5-3.5
	c-0.4-0.3-0.7-0.6-1.1-0.8c-0.3-0.2-0.5-0.4-0.8-0.6c-1.1-0.9-2.2-1.6-3.4-2.5c-0.4-0.3-0.8-0.5-1.1-0.8c-1.6-1.1-3.2-2.2-4.9-3.3
	c-1.8-1.2-3.7-2.3-5.5-3.4c-1.9-1.1-3.8-2.2-5.7-3.3c0,0-0.1,0-0.1-0.1c-1.7-0.9-3.5-1.8-5.2-2.7c-0.3-0.2-0.6-0.3-0.9-0.4
	c-1.8-0.9-3.7-1.8-5.5-2.6c-1.9-0.9-3.8-1.7-5.8-2.5c-0.1-0.1-0.2-0.1-0.4-0.1c-2-0.8-4-1.6-6.1-2.3c-4.2-1.5-8.4-2.8-12.7-4
	c-1.6-0.4-3.2-0.9-4.9-1.3c-3.3-0.8-6.5-1.5-9.9-2c-1.6-0.3-3.3-0.6-5-0.8c-2-0.3-4-0.6-6-0.8c-2-0.2-4.1-0.4-6.1-0.5
	c-1.4-0.1-2.7-0.2-4.1-0.2c-1.3-0.1-2.6-0.1-3.9-0.1c-1.4,0-2.9-0.1-4.4-0.1c-1.5,0-2.9,0-4.4,0.1c-1.1,0-2.3,0-3.4,0.1
	c-0.6,0-1.3,0.1-1.9,0.1c-1.1,0-2.1,0.1-3.2,0.2c-2.8,0.2-5.6,0.5-8.4,0.8c-2.3,0.3-4.6,0.6-6.9,1c-2.3,0.4-4.5,0.8-6.8,1.3
	c-2.3,0.5-4.5,1-6.7,1.5c-2.1,0.5-4.2,1.1-6.2,1.7c-0.3,0.1-0.5,0.1-0.7,0.2c-4.2,1.3-8.4,2.7-12.5,4.3c-2.1,0.8-4.2,1.6-6.2,2.5
	c0,0-0.1,0-0.1,0c-2,0.9-4.1,1.8-6.1,2.8c-0.1,0-0.2,0.1-0.3,0.1c-1.9,0.9-3.8,1.9-5.7,2.9c-2,1-3.9,2.1-5.8,3.2
	c-1.9,1.1-3.8,2.3-5.7,3.5c-1.4,0.9-2.8,1.8-4.1,2.7c-0.8,0.5-1.5,1-2.2,1.5c-1.5,1-3,2.1-4.4,3.2c-0.1,0-0.1,0.1-0.2,0.1
	c-1.6,1.2-3.1,2.4-4.7,3.7c-0.5,0.4-1.1,0.8-1.6,1.3c-1.3,1.1-2.6,2.2-3.9,3.3c-3,2.6-6,5.4-8.8,8.3c-0.5,0.5-0.9,0.9-1.4,1.4
	c-1.4,1.4-3.7,3.9-5,5.4c-0.8,0.9-1.6,1.8-2.3,2.7c-0.6,0.6-1.1,1.3-1.7,2c-1.4,1.6-2.6,3.3-3.9,4.9c-1,1.2-1.9,2.4-2.7,3.6
	c-0.3,0.4-0.5,0.8-0.8,1.1c-0.6,0.9-1.3,1.8-1.9,2.8c-0.2,0.3-0.5,0.6-0.6,1c-0.6,0.9-1.2,1.8-1.8,2.7c-1.1,1.8-2.3,3.5-3.3,5.3
	c-1.1,1.8-2.1,3.6-3.1,5.4c-0.9,1.6-1.7,3.1-2.4,4.7c-0.4,0.8-0.9,1.6-1.3,2.5c-0.7,1.3-1.3,2.6-1.9,4c-0.5,1.1-1,2.3-1.5,3.4
	c-0.1,0.3-0.3,0.5-0.4,0.8c-0.5,1.1-0.9,2.3-1.4,3.4c-0.8,2-1.5,4-2.2,6c-0.8,2.1-1.4,4.2-2.1,6.3c-0.7,2.1-1.3,4.2-1.8,6.4
	c-0.6,2.2-1.1,4.4-1.6,6.6c-0.5,2.3-1,4.5-1.4,6.8c0,0.1,0,0.1,0,0.2c0,0.1,0,0.2,0,0.3c-3,17.1-17.5,29.7-34.9,29.7H312
	c-19.5,0-35.3-15.8-35.3-35.3v-119.3c0-34.9,17-67.7,45.6-87.8l1066.1-749.6c16.5-11.6,34.8-16.7,52.5-16.4h201.8L1525.4,558.7z"/>
<path class="st0" d="M1723.3,585.3v217.2c0,43.8-22.8,84.4-60.2,107.1l-97.9,59.5c-37.4,22.8-60.2,63.3-60.2,107.1v392.6
	c0,19.5-15.8,35.3-35.3,35.3h-233.7c-17.3,0-31.8-12.5-34.8-29.5c-0.1-0.6-0.2-1.1-0.3-1.7c0-0.1,0-0.1,0-0.1
	c-0.4-2.2-0.9-4.4-1.4-6.6c-1.5-6.5-3.4-13-5.6-19.2c-0.6-1.7-1.3-3.4-1.9-5.1c-1.8-4.6-3.8-9.1-6-13.5c-0.9-1.8-1.8-3.6-2.8-5.4
	c-0.8-1.5-1.7-3.1-2.6-4.6c-0.5-0.8-0.9-1.5-1.4-2.3c-0.1-0.2-0.3-0.5-0.4-0.7c-0.7-1.3-1.5-2.5-2.3-3.7c-1-1.6-2.1-3.1-3.2-4.7
	c-3.5-5.2-7.4-10.1-11.6-14.8c-0.7-0.8-1.4-1.5-2-2.3c-4.2-4.6-8.6-9-13.3-13.1c-1.4-1.3-2.9-2.5-4.4-3.8c-1.5-1.2-2.9-2.4-4.5-3.5
	c-0.4-0.3-0.7-0.6-1.1-0.8c-1.4-1.1-2.8-2.1-4.2-3.1c-0.4-0.3-0.8-0.5-1.1-0.8c-1.6-1.1-3.2-2.2-4.9-3.3c-1.8-1.2-3.7-2.3-5.5-3.4
	c-1.9-1.1-3.8-2.2-5.7-3.3c0,0-0.1,0-0.1-0.1c-1.7-0.9-3.5-1.8-5.2-2.7c-0.3-0.2-0.6-0.3-0.9-0.4c-1.8-0.9-3.7-1.8-5.5-2.6
	c-1.9-0.9-3.8-1.7-5.8-2.5c-0.1-0.1-0.2-0.1-0.4-0.1c-2-0.8-4-1.6-6.1-2.3c-4.2-1.5-8.4-2.8-12.7-4c-1.6-0.4-3.2-0.9-4.9-1.3
	c-3.3-0.8-6.5-1.5-9.9-2c-1.6-0.3-3.3-0.6-5-0.8c-2-0.3-4-0.6-6-0.8c-2-0.2-4.1-0.4-6.1-0.5c-1.4-0.1-2.7-0.2-4.1-0.2
	c-1.3-0.1-2.6-0.1-3.9-0.1c-1.4,0-2.9-0.1-4.4-0.1c-1.5,0-2.9,0-4.4,0.1c-1.1,0-2.3,0-3.4,0.1c-0.6,0-1.3,0.1-1.9,0.1
	c-1.1,0-2.1,0.1-3.2,0.2c-2.8,0.2-5.6,0.5-8.4,0.8c-2.3,0.3-4.6,0.6-6.9,1c-2.3,0.4-4.5,0.8-6.8,1.3c-2.3,0.5-4.5,1-6.7,1.5
	c-2.1,0.5-4.2,1.1-6.2,1.7c-0.3,0.1-0.5,0.1-0.7,0.2c-4.2,1.3-8.4,2.7-12.5,4.3c-2.1,0.8-4.2,1.6-6.2,2.5c0,0-0.1,0-0.1,0
	c-2,0.9-4.1,1.8-6.1,2.8c-0.1,0-0.2,0.1-0.3,0.1c-1.9,0.9-3.8,1.9-5.7,2.9c-2,1-3.9,2.1-5.8,3.2c-1.9,1.1-3.8,2.3-5.7,3.5
	c-1.4,0.9-2.8,1.8-4.1,2.7c-0.8,0.5-1.5,1-2.2,1.5c-1.5,1-3,2.1-4.4,3.2c0,0-0.1,0.1-0.1,0.1c0,0-0.1,0.1-0.1,0.1
	c-1.6,1.2-3.1,2.4-4.7,3.7c-0.5,0.4-1.1,0.8-1.6,1.3c-1.3,1.1-2.6,2.2-3.9,3.3c-3,2.6-6,5.4-8.8,8.3c-0.5,0.5-0.9,0.9-1.4,1.4
	c-1.4,1.4-3.7,3.9-5,5.4c-0.8,0.9-1.6,1.8-2.3,2.7c-0.6,0.6-1.1,1.3-1.7,2c-1.4,1.6-2.6,3.3-3.9,4.9c-1,1.2-1.9,2.4-2.7,3.6
	c-0.3,0.4-0.5,0.8-0.8,1.1c-0.6,0.9-1.3,1.8-1.9,2.8c-0.2,0.3-0.5,0.6-0.6,1c-0.6,0.9-1.2,1.8-1.8,2.7c-1.1,1.8-2.3,3.5-3.3,5.3
	c-1.1,1.8-2.1,3.6-3.1,5.4c-0.9,1.6-1.7,3.1-2.4,4.7c-0.4,0.8-0.9,1.6-1.3,2.5c-0.7,1.3-1.3,2.6-1.9,4c-0.5,1.1-1,2.3-1.5,3.4
	c-0.1,0.3-0.2,0.5-0.4,0.8c-0.5,1.1-0.9,2.3-1.4,3.4c-0.8,2-1.5,4-2.2,6c-0.8,2.1-1.4,4.2-2.1,6.3c-0.7,2.1-1.3,4.2-1.8,6.4
	c-0.6,2.2-1.1,4.4-1.6,6.6c-0.5,2.3-1,4.5-1.4,6.8c0,0.1,0,0.1,0,0.2c0,0.1,0,0.2,0,0.3c-3,17.1-17.5,29.7-34.9,29.7h-326
	c-19.5,0-35.3-15.8-35.3-35.3v-119.3c0-34.9,17-67.7,45.6-87.8l1000-703.1l66.2-46.5c16.1-11.3,33.9-16.4,51.1-16.4
	C1679.9,495.7,1723.3,532.6,1723.3,585.3z"/>
</svg>
